<?xml version="1.0" encoding="UTF-8" standalone="no"?>
<!-- Created with Inkscape (http://www.inkscape.org/) -->

<svg
   width="210mm"
   height="210mm"
   viewBox="0 0 210 210"
   version="1.1"
   id="svg1"
   inkscape:version="1.4.2 (ebf0e940d0, 2025-05-08)"
   sodipodi:docname="zanjanlug_logo_square.svg"
   xmlns:inkscape="http://www.inkscape.org/namespaces/inkscape"
   xmlns:sodipodi="http://sodipodi.sourceforge.net/DTD/sodipodi-0.dtd"
   xmlns:xlink="http://www.w3.org/1999/xlink"
   xmlns="http://www.w3.org/2000/svg"
   xmlns:svg="http://www.w3.org/2000/svg">
  <sodipodi:namedview
     id="namedview1"
     pagecolor="#505050"
     bordercolor="#eeeeee"
     borderopacity="1"
     inkscape:showpageshadow="0"
     inkscape:pageopacity="0"
     inkscape:pagecheckerboard="0"
     inkscape:deskcolor="#505050"
     inkscape:document-units="mm"
     inkscape:zoom="0.69842873"
     inkscape:cx="176.82549"
     inkscape:cy="418.08131"
     inkscape:window-width="1920"
     inkscape:window-height="1004"
     inkscape:window-x="0"
     inkscape:window-y="0"
     inkscape:window-maximized="1"
     inkscape:current-layer="layer1" />
  <defs
     id="defs1">
    <radialGradient
       inkscape:collect="always"
       xlink:href="#linearGradient43"
       id="radialGradient44"
       cx="114.68661"
       cy="113.497"
       fx="114.68661"
       fy="113.497"
       r="27.086096"
       gradientUnits="userSpaceOnUse"
       gradientTransform="matrix(0.5725024,-1.4214452,1.4466516,0.58265207,-113.29976,211.6109)" />
    <linearGradient
       id="linearGradient43"
       inkscape:collect="always">
      <stop
         style="stop-color:#666666;stop-opacity:1;"
         offset="0"
         id="stop43" />
      <stop
         style="stop-color:#666666;stop-opacity:0;"
         offset="1"
         id="stop44" />
    </linearGradient>
  </defs>
  <g
     inkscape:label="Layer 1"
     inkscape:groupmode="layer"
     id="layer1">
    <rect
       style="fill:#ffffff;fill-opacity:1;fill-rule:evenodd;stroke-width:3.75599;stroke-linecap:square;stroke-miterlimit:3.7;paint-order:markers fill stroke"
       id="rect42"
       width="210"
       height="210"
       x="0"
       y="0"
       ry="28.408094"
       rx="28.408094" />
    <g
       id="g44"
       transform="matrix(2.2094057,0,0,2.2094057,-151.14015,-171.65813)">
      <circle
         style="fill:#333333;fill-opacity:1;fill-rule:evenodd;stroke-width:1.7;stroke-linecap:square;stroke-miterlimit:3.7;paint-order:markers fill stroke"
         id="circle42"
         cx="115.73405"
         cy="112.15034"
         r="27.086096" />
      <circle
         style="fill:url(#radialGradient44);fill-opacity:1;fill-rule:evenodd;stroke-width:1.7;stroke-linecap:square;stroke-miterlimit:3.7;paint-order:markers fill stroke"
         id="path6"
         cx="115.73405"
         cy="112.15034"
         r="27.086096" />
      <g
         id="g25"
         transform="matrix(0.08555405,0.01763547,-0.01763547,0.08555405,-82.283995,-196.63888)"
         style="stroke-width:0.537096">
        <path
           fill="#202020"
           d="m 3312.8857,3168.0859 c -5,-5.6 -7.3,-15.95 -9.85,-27 -2.5,-11 -5.35,-22.85 -14.4,-30.5 v -0.05 a 37.8,37.8 0 0 0 -11.15,-6.7 c 12.6,-37.25 7.65,-74.35 -5,-107.85 -15.6,-41.15 -42.75,-77 -63.5,-101.5 -23.2,-29.3 -45.9,-57.1 -45.5,-98.15 0.7,-62.7 6.9,-178.95 -103.4,-179.1 -4.5,0 -9.15,0.2 -14,0.6 -123.3,9.9 -90.6,140.15 -92.45,183.75 -2.25,31.9 -8.7,57 -30.65,88.2 -25.75,30.65 -62,80.2 -79.2,131.85 -8.1,24.35 -12,49.2 -8.4,72.7 -1.15,1 -2.2,2.05 -3.2,3.15 -7.55,8.05 -13.15,17.85 -19.4,24.45 -5.8,5.8 -14.1,8 -23.2,11.25 -9.15,3.3 -19.15,8.1 -25.2,19.75 v 0.05 a 35.1,35.1 0 0 0 -3.85,16.95 c 0,5.4 0.8,10.85 1.6,16.1 1.7,11 3.4,21.35 1.15,28.35 -7.2,19.75 -8.15,33.35 -3.05,43.25 5.1,9.95 15.5,14.3 27.35,16.75 23.65,5 55.7,3.75 80.95,17.1 l 2.15,-4.1 -2.15,4.1 c 27,14.15 54.45,19.15 76.3,14.2 a 49.5,49.5 0 0 0 35.3,-27.6 c 17.1,-0.1 35.85,-7.3 65.9,-9 20.4,-1.6 45.9,7.25 75.15,5.65 a 40.3,40.3 0 0 0 3.4,9.15 l 0.05,0.05 c 11.35,22.75 32.5,33.1 55,31.35 22.5,-1.8 46.4,-15.05 65.75,-38.1 l -3.5,-3 3.5,3 c 18.5,-22.4 49.1,-31.65 69.4,-43.9 10.15,-6.15 18.4,-13.8 19,-24.95 0.65,-11.1 -5.9,-23.55 -20.9,-40.25 z"
           id="path1-1"
           style="fill:#333333;stroke-width:26.8548" />
        <path
           fill="#f8bf11"
           d="m 3324.5357,3207.8359 c -0.35,6.85 -5.35,12 -14.5,17.5 -18.4,11.1 -50.95,20.7 -71.7,45.9 -18.1,21.5 -40.1,33.25 -59.5,34.8 -19.35,1.5 -36.05,-6.5 -45.95,-26.3 v -0.1 c -6.15,-11.65 -3.6,-30 1.55,-49.35 5.15,-19.35 12.55,-39.25 13.55,-55.4 v -0.05 c 1,-20.75 2.2,-38.8 5.7,-52.75 3.5,-14 8.95,-23.4 18.65,-28.75 a 43.8,43.8 0 0 1 1.35,-0.7 c 1.1,17.95 10,36.25 25.7,40.2 17.15,4.5 41.9,-10.2 52.35,-22.25 l 6.1,-0.2 c 9.2,-0.25 16.85,0.3 24.75,7.15 v 0.05 c 6.05,5.1 8.95,14.8 11.45,25.6 2.5,10.85 4.5,22.65 11.95,31.05 14.35,16 19,26.7 18.55,33.6 z m -348.95,50.75 v 0.15 c -1.7,21.75 -14,33.6 -32.8,37.9 -18.85,4.3 -44.4,0 -69.9,-13.3 -28.25,-15 -61.85,-13.5 -83.35,-18 -10.8,-2.25 -17.85,-5.65 -21.05,-11.9 -3.2,-6.3 -3.3,-17.25 3.55,-36 v -0.05 l 0.05,-0.1 c 3.4,-10.45 0.9,-21.9 -0.75,-32.65 -1.65,-10.7 -2.45,-20.5 1.2,-27.3 l 0.05,-0.05 c 4.7,-9.05 11.6,-12.3 20.15,-15.35 8.5,-3.1 18.65,-5.5 26.65,-13.5 l 0.05,-0.05 h 0.05 c 7.4,-7.85 13,-17.65 19.5,-24.6 5.5,-5.85 11,-9.75 19.25,-9.8 h 0.25 a 30.5,30.5 0 0 1 4.65,0.4 c 11,1.65 20.55,9.35 29.8,21.85 l 26.65,48.55 v 0.05 c 7.1,14.8 22.05,31.1 34.75,47.7 12.7,16.65 22.5,33.3 21.25,46.05 z"
           id="path2"
           style="fill:#ff9955;stroke-width:26.8548" />
        <path
           fill="#d6a312"
           d="m 3108.4857,2805.8359 c -2.15,-4.2 -6.5,-8.2 -14,-11.25 -15.5,-6.65 -22.2,-7.1 -30.85,-12.7 -14,-9.05 -25.65,-12.2 -35.3,-12.2 a 41.7,41.7 0 0 0 -13.6,2.35 c -11.8,4 -19.6,12.5 -24.5,17.1 -1,0.95 -2.2,1.75 -5.2,4 -3,2.15 -7.5,5.5 -14,10.4 -5.85,4.3 -7.7,10 -5.7,16.6 2,6.6 8.35,14.25 20,20.85 h 0.05 c 7.25,4.25 12.2,10 17.9,14.55 a 40.05,40.05 0 0 0 9.45,5.85 c 3.6,1.55 7.8,2.6 13,2.9 12.4,0.75 21.5,-3 29.5,-7.55 8,-4.6 14.8,-10.2 22.6,-12.75 h 0.05 c 16,-5 27.4,-15.05 31,-24.65 a 16.2,16.2 0 0 0 -0.4,-13.5 z"
           id="path3"
           style="fill:#ff9955;stroke-width:26.8548" />
        <path
           fill="#202020"
           d="m 3067.8857,2829.4359 c -12.75,6.65 -27.6,14.7 -43.45,14.7 -15.8,0 -28.3,-7.3 -37.25,-14.45 -4.5,-3.5 -8.15,-7.1 -10.9,-9.65 -4.8,-3.75 -4.2,-9.05 -2.25,-8.9 3.3,0.4 3.8,4.75 5.85,6.7 2.8,2.6 6.3,6 10.55,9.35 8.5,6.75 19.85,13.3 34,13.3 14.2,0 30.7,-8.3 40.8,-14 5.75,-3.2 13,-8.95 18.95,-13.3 4.5,-3.35 4.35,-7.35 8.1,-6.9 3.75,0.45 1,4.45 -4.25,9 -5.25,4.6 -13.5,10.7 -20.15,14.15 z"
           id="path4"
           style="stroke-width:26.8548" />
        <path
           fill="#ffffff"
           d="m 3262.8357,3101.1359 a 86.2,86.2 0 0 0 -5.2,0 h -0.5 c 4.4,-13.85 -5.3,-24 -31.05,-35.65 -26.7,-11.75 -48,-10.6 -51.6,13.25 -0.25,1.25 -0.45,2.5 -0.55,3.8 a 40.05,40.05 0 0 0 -6,2.7 c -12.6,6.85 -19.45,19.3 -23.25,34.6 -3.8,15.25 -4.9,33.7 -5.95,54.5 -0.65,10.4 -4.95,24.5 -9.3,39.5 -43.75,31.2 -104.5,44.7 -156.1,9.5 -3.5,-5.5 -7.5,-11 -11.65,-16.4 a 692.5,692.5 0 0 0 -8,-10.25 32.5,32.5 0 0 0 13.4,-2.5 17,17 0 0 0 9.3,-9.6 c 3.15,-8.5 0,-20.4 -10.1,-34 -10.05,-13.65 -27.1,-29 -52.15,-44.4 -18.4,-11.5 -28.7,-25.5 -33.5,-40.7 -4.85,-15.25 -4.2,-31.75 -0.5,-48 7.15,-31.25 25.5,-61.65 37.15,-80.7 3.15,-2.3 1.15,4.3 -11.8,28.35 -11.6,22 -33.35,72.75 -3.6,112.4 0.8,-28.2 7.5,-57 18.85,-83.85 16.45,-37.35 50.9,-102.05 53.6,-153.65 1.45,1 6.25,4.3 8.45,5.5 6.3,3.75 11.05,9.2 17.2,14.15 a 42.5,42.5 0 0 0 28.75,10 c 12,0 21.35,-3.95 29.1,-8.4 8.5,-4.8 15.2,-10.2 21.65,-12.25 13.5,-4.25 24.3,-11.75 30.4,-20.5 10.5,41.5 35,101.35 50.7,130.55 8.35,15.5 25,48.45 32.15,88.1 4.55,-0.1 9.55,0.5 14.95,1.9 18.75,-48.65 -15.95,-101.1 -31.8,-115.7 -6.4,-6.2 -6.75,-9 -3.5,-8.85 17.15,15.2 39.75,45.85 48,80.4 3.75,15.75 4.5,32.3 0.5,48.65 2,0.85 4,1.7 6,2.7 30.15,14.65 41.3,27.4 35.95,44.85 z"
           id="path5"
           style="fill:#f4eed7;stroke-width:26.8548" />
        <path
           fill="#ffffff"
           d="m 3109.8857,2758.0859 a 52.5,52.5 0 0 1 -10.75,32.8 205.95,205.95 0 0 0 -10.9,-4.5 l -6.35,-2.25 c 1.45,-1.75 4.25,-3.75 5.35,-6.35 a 33.45,33.45 0 0 0 2.5,-12.15 l 0.05,-0.5 a 33.65,33.65 0 0 0 -1.75,-11.8 21.7,21.7 0 0 0 -5.4,-9.2 11.15,11.15 0 0 0 -7.8,-3.5 h -0.35 a 11.4,11.4 0 0 0 -7.55,3 21.7,21.7 0 0 0 -6.1,8.75 33.8,33.8 0 0 0 -2.5,12.15 v 0.5 a 35.9,35.9 0 0 0 0.45,7 88.65,88.65 0 0 0 -17.7,-6 59.8,59.8 0 0 1 -0.5,-6.65 v -0.65 a 51.75,51.75 0 0 1 4.4,-22.35 39.65,39.65 0 0 1 12.5,-16.4 27.7,27.7 0 0 1 17.3,-6.15 h 0.3 c 6.25,0 11.6,1.8 17.1,5.8 a 39,39 0 0 1 12.85,16.2 c 3.15,6.9 4.7,13.65 4.85,21.65 l 0.05,0.6 z m -94.5,8.2 a 52.5,52.5 0 0 0 -13.85,6.25 31.15,31.15 0 0 0 0.1,-7.5 v -0.4 a 32.55,32.55 0 0 0 -2.4,-9.6 18.5,18.5 0 0 0 -4.8,-7.05 7.9,7.9 0 0 0 -5.95,-2.25 c -2.1,0.2 -3.85,1.2 -5.5,3.25 a 18.6,18.6 0 0 0 -3.5,7.8 31.3,31.3 0 0 0 -0.65,10.25 v 0.4 a 31.7,31.7 0 0 0 2.4,9.65 18.35,18.35 0 0 0 5.8,7.8 l -5.1,4 -3.9,2.8 a 35.3,35.3 0 0 1 -8,-12 c -2.65,-6 -4.1,-12 -4.5,-19.05 v -0.05 a 53.55,53.55 0 0 1 2.25,-19.5 33.4,33.4 0 0 1 8.35,-14.6 17.95,17.95 0 0 1 13.2,-5.9 c 4.2,0 7.9,1.4 11.75,4.5 a 34,34 0 0 1 9.95,13.55 c 2.65,6 4,12 4.45,19.1 v 0.05 c 0.15,3 0.15,5.75 -0.1,8.5 z"
           id="path7"
           style="fill:#f4eed7;stroke-width:26.8548" />
        <path
           fill="#202020"
           d="m 3036.2857,2783.1859 c 0.5,1.7 3.25,1.45 4.85,2.25 1.35,0.7 2.5,2.25 4,2.3 1.5,0.05 3.8,-0.5 4,-2 0.25,-1.9 -2.6,-3.15 -4.4,-3.85 -2.35,-0.95 -5.35,-1.4 -7.55,-0.15 -0.5,0.25 -1.05,0.9 -0.9,1.5 z m -16.1,0 c -0.5,1.7 -3.25,1.45 -4.8,2.25 -1.4,0.7 -2.5,2.25 -4.05,2.3 -1.5,0.05 -3.8,-0.5 -4,-2 -0.25,-1.9 2.6,-3.15 4.4,-3.85 2.35,-0.95 5.4,-1.4 7.6,-0.15 0.5,0.25 1,0.9 0.85,1.5 z"
           id="path8"
           style="stroke-width:26.8548" />
      </g>
      <g
         id="g29"
         transform="matrix(0.23981164,0,0,0.23981164,37.620751,75.763324)">
        <path
           style="fill:#4b2f17;fill-opacity:1;stroke:#000000;stroke-width:1.05833;stroke-linejoin:round;paint-order:markers fill stroke"
           d="m 246.96811,282.21922 h 200.34336 c 0,0 1.35454,0.21376 2.47915,-0.43553 1.12458,-0.64928 1.06164,-1.87052 1.06164,-1.87052 v -65.21548 c 0,0 0.1724,-0.0625 -0.40444,-1.06164 -0.57685,-0.99912 -1.98221,-1.14444 -1.98221,-1.14444 l -25.16563,-8.20817 -0.1011,-60.5139 c 0,0 -2.45191,-3.03328 -6.49628,-3.03328 -4.04437,0 -6.49627,3.03328 -6.49627,3.03328 l -0.25278,27.95671 -11.27368,-4.54991 v -52.32405 c 0,0 -1.30044,-4.3477 -7.83597,-4.3477 -7.0679,0 -7.83597,4.3477 -7.83597,4.3477 v 25.42898 c 0,0 -16.32912,-19.46353 -27.09726,-26.33897 -10.76815,-6.87543 -24.7066,-9.92576 -24.7066,-9.92576 0,0 -14.27713,5.97244 -24.70661,13.28199 -10.42948,7.30955 -21.92864,24.51374 -21.92864,24.51374 l -0.17828,-28.52508 c 0,0 -1.76827,-3.65477 -7.17584,-3.65477 -5.27139,0 -7.17585,3.83305 -7.17585,3.83305 l -0.17827,52.68225 -8.46839,2.8525 0.17828,-22.64177 c 0,0 -1.11427,-5.61587 -6.28442,-4.90275 -5.17017,0.71313 -6.28443,4.90275 -6.28443,4.90275 v 30.04047 l -4.27876,2.94164 0.26741,99.92689 c 0,0 -0.71313,0.89141 0.26742,1.9611 0.98057,1.06969 1.71042,0.99067 1.71042,0.99067 z"
           id="path13"
           sodipodi:nodetypes="ccsccscccsccccsccscsccsccccsccccsc" />
        <g
           id="g27"
           style="fill:#dbac68;fill-opacity:1">
          <path
             style="fill:#dbac68;fill-opacity:1;stroke:#000000;stroke-width:1.05833;stroke-linejoin:round;paint-order:markers fill stroke"
             d="m 251.21145,275.81673 0.14986,-92.60723 19.33064,-9.74024 v 102.34747 z"
             id="path14" />
          <path
             style="fill:#dbac68;fill-opacity:1;stroke:#000000;stroke-width:1.05833;stroke-linejoin:round;paint-order:markers fill stroke"
             d="m 277.4352,276.19605 -0.29972,-105.72381 60.83905,2e-5 -0.29969,105.72379 h -20.52945 v -25.2544 c 0,0 -3.07192,-10.18979 -11.76321,-9.89009 -8.6913,0.2997 -11.76321,9.89009 -11.76321,9.89009 v 25.2544 z"
             id="path15-1"
             sodipodi:nodetypes="ccccccsccc" />
          <path
             style="fill:#dbac68;fill-opacity:1;stroke:#000000;stroke-width:1.05833;stroke-linejoin:round;paint-order:markers fill stroke"
             d="m 344.26823,204.63803 0.7288,-34.16579 h 46.45345 l 0.32016,31.4685 -16.78318,1.19879 -0.74925,-16.63333 c 0,0 -0.29972,-4.1958 -6.89311,-4.4955 -6.59339,-0.2997 -7.49249,7.1928 -7.49249,7.1928 l -0.2997,15.13483 z"
             id="path20"
             sodipodi:nodetypes="ccccccsccc" />
          <path
             style="fill:#dbac68;fill-opacity:1;stroke:#000000;stroke-width:1.05833;stroke-linejoin:round;paint-order:markers fill stroke"
             d="m 343.81867,275.66688 0.74925,-64.43545 59.64026,-3.5964 0.29969,67.73215 z"
             id="path21" />
        </g>
        <path
           style="fill:#33aadd;fill-opacity:1;stroke:#000000;stroke-width:1.05833;stroke-linejoin:round;paint-order:markers fill stroke"
           d="m 283.55984,161.81078 c 0,0 4.83951,-23.18705 24.56631,-38.83368 19.00655,-15.07535 24.56631,-14.64188 24.56631,-14.64188 0,0 6.82409,-0.37512 24.56631,12.13031 21.1672,14.91949 24.56631,41.4499 24.56631,41.4499 z"
           id="path26"
           sodipodi:nodetypes="cscscc" />
        <g
           id="g26"
           style="fill:#4b2f17;fill-opacity:1">
          <path
             style="fill:#4b2f17;fill-opacity:1;stroke:#000000;stroke-width:1.05833;stroke-linejoin:round;paint-order:markers fill stroke"
             d="m 301.11147,237.00561 h 8.99099 v -15.43454 c 0,0 -2.17282,-2.997 -4.12088,-2.997 -1.94805,0 -4.12087,2.997 -4.12087,2.997 z"
             id="path16"
             sodipodi:nodetypes="cccscc" />
          <path
             style="fill:#4b2f17;fill-opacity:1;stroke:#000000;stroke-width:1.05833;stroke-linejoin:round;paint-order:markers fill stroke"
             d="m 253.37311,241.85711 7.40349,0.14985 v -15.43454 c 0,0 -1.37907,-2.997 -3.32713,-2.997 -1.94804,0 -3.32712,2.997 -3.32712,2.997 z"
             id="path16-9"
             sodipodi:nodetypes="cccscc" />
          <path
             d="m 254.78862,209.37945 7.40349,0.14985 v -16.48349 c 0,0 -2.09788,-1.94805 -4.04593,-1.94805 -1.94805,0 -2.60832,2.997 -2.60832,2.997 z"
             style="fill:#4b2f17;fill-opacity:1;stroke:#000000;stroke-width:1.05833;stroke-linejoin:round;paint-order:markers fill stroke"
             id="path1-4" />
          <path
             style="fill:#4b2f17;fill-opacity:1;stroke:#000000;stroke-width:1.05833;stroke-linejoin:round;paint-order:markers fill stroke"
             d="m 281.63099,206.58608 12.58739,-0.5994 0.14984,-21.72823 c 0,0 -2.09788,-3.2967 -6.59339,-3.2967 -4.49549,0 -5.54445,4.1958 -5.54445,4.1958 z"
             id="path17" />
          <path
             style="fill:#4b2f17;fill-opacity:1;stroke:#000000;stroke-width:1.05833;stroke-linejoin:round;paint-order:markers fill stroke"
             d="M 299.01359,206.73593 H 316.546 l 0.14984,-20.52943 c 0,0 -1.79819,-5.24475 -8.84112,-5.24475 -7.04295,0 -9.29069,6.2937 -9.29069,6.2937 z"
             id="path18" />
          <path
             style="fill:#4b2f17;fill-opacity:1;stroke:#000000;stroke-width:1.05833;stroke-linejoin:round;paint-order:markers fill stroke"
             d="m 321.49104,207.33533 11.53845,-0.44955 0.59939,-22.17778 c 0,0 -2.3976,-3.8961 -7.64233,-3.74625 -5.24476,0.14985 -4.94506,4.94505 -4.94506,4.94505 z"
             id="path19" />
          <path
             style="fill:#4b2f17;fill-opacity:1;stroke:#000000;stroke-width:1.05833;stroke-linejoin:round;paint-order:markers fill stroke"
             d="m 425.6054,240.25049 4.49271,0.50543 v -11.79333 c 0,0 -0.78624,-3.2572 -2.13403,-2.80793 -1.34781,0.44927 -1.96556,3.59416 -1.96556,3.59416 z"
             id="path23" />
          <path
             style="fill:#4b2f17;fill-opacity:1;stroke:#000000;stroke-width:1.05833;stroke-linejoin:round;paint-order:markers fill stroke"
             d="m 435.71397,244.1816 4.2119,0.89854 0.11231,-14.5451 c 0,0 -1.23547,-2.07787 -2.24634,-1.96556 -1.01086,0.11232 -2.41482,1.57245 -2.41482,1.57245 z"
             id="path24" />
        </g>
        <g
           id="g28"
           style="fill:#ba8e54;fill-opacity:1">
          <path
             style="fill:#ba8e54;fill-opacity:1;stroke:#000000;stroke-width:1.05833;stroke-linejoin:round;paint-order:markers fill stroke"
             d="m 411.25112,275.66688 -0.14983,-67.73215 34.01591,10.48949 v 57.24266 z"
             id="path22" />
          <path
             style="fill:#ba8e54;fill-opacity:1;stroke:#000000;stroke-width:1.05833;stroke-linejoin:round;paint-order:markers fill stroke"
             d="m 398.31154,201.31657 -1.38695,-27.65692 19.74332,9.21897 -0.73427,19.25379 -5.0582,-2.20276 z"
             id="path25" />
        </g>
      </g>
    </g>
    <text
       xml:space="preserve"
       style="font-style:normal;font-variant:normal;font-weight:bold;font-stretch:normal;font-size:20.5306px;line-height:1.9;font-family:DimaAbdi;-inkscape-font-specification:'DimaAbdi Bold';text-align:start;letter-spacing:-0.0256632px;word-spacing:-0.0128316px;writing-mode:lr-tb;direction:rtl;text-anchor:start;fill:#ba8e54;fill-opacity:1;fill-rule:evenodd;stroke-width:3.75598;stroke-linecap:square;stroke-miterlimit:3.7;paint-order:markers fill stroke"
       x="161.47632"
       y="178.94591"
       id="text38"><tspan
         sodipodi:role="line"
         id="tspan38"
         style="stroke-width:3.75598"
         x="161.45065"
         y="178.94591"><tspan
   style="fill:#000000;stroke-width:3.75598"
   id="tspan39">ZANJAN  </tspan>LUG</tspan></text>
    <path
       style="color:#000000;font-style:normal;font-variant:normal;font-weight:bold;font-stretch:normal;font-size:23.9028px;line-height:1.9;font-family:DimaAbdi;-inkscape-font-specification:'DimaAbdi Bold';font-variant-ligatures:normal;font-variant-position:normal;font-variant-caps:normal;font-variant-numeric:normal;font-variant-alternates:normal;font-variant-east-asian:normal;font-feature-settings:normal;font-variation-settings:normal;text-indent:0;text-align:start;text-decoration-line:none;text-decoration-style:solid;text-decoration-color:#000000;letter-spacing:-0.0298784px;word-spacing:-0.0149392px;text-transform:none;writing-mode:lr-tb;direction:rtl;text-orientation:mixed;dominant-baseline:auto;baseline-shift:baseline;text-anchor:start;white-space:normal;shape-padding:0;shape-margin:0;inline-size:0;clip-rule:nonzero;display:inline;overflow:visible;visibility:visible;isolation:auto;mix-blend-mode:normal;color-interpolation:sRGB;color-interpolation-filters:linearRGB;solid-color:#000000;solid-opacity:1;vector-effect:none;fill:#ba8e54;fill-opacity:1;fill-rule:evenodd;stroke:none;stroke-width:2.20941;stroke-linecap:square;stroke-linejoin:miter;stroke-miterlimit:3.7;stroke-dasharray:none;stroke-dashoffset:0;stroke-opacity:1;-inkscape-stroke:none;paint-order:markers fill stroke;color-rendering:auto;image-rendering:auto;shape-rendering:auto;text-rendering:auto;enable-background:accumulate;stop-color:#000000"
       d="m 90.80469,152.70699 c 0.227187,-0.0758 0.496455,-0.18933 0.807777,-0.34078 0.311321,-0.15134 0.626849,-0.3071 0.946597,-0.46698 0.328148,-0.15995 0.643689,-0.30291 0.946597,-0.42912 0.302908,-0.1262 0.563763,-0.20195 0.782523,-0.22718 0,20.90764 0.03782,5.69852 0.03782,9.12522 v 0.8204 c 2.275536,0.13277 2.596339,0.004 2.852412,-0.18933 0.218774,-0.16838 0.332368,-0.39968 0.340795,-0.69419 -0.0027,-2.54832 -0.560885,-5.08132 -0.94598,-7.59803 0.227201,-0.0758 0.496456,-0.18934 0.807777,-0.34078 0.311335,-0.15134 0.626849,-0.30714 0.946597,-0.46701 0.328148,-0.15996 0.643689,-0.30289 0.946597,-0.4291 0.302908,-0.1262 0.563749,-0.20195 0.782538,-0.22721 -0.0307,3.00817 -0.0137,6.0163 0.0252,9.02428 0.0177,0.60583 -3e-5,1.19902 -0.0506,1.77961 -0.05056,0.57216 -0.147139,1.11489 -0.290275,1.62816 -0.142945,0.50484 -0.366022,0.9508 -0.66893,1.33787 -0.294494,0.37862 -0.685756,0.68153 -1.173799,0.90871 -0.488015,0.21874 -1.102271,0.32817 -1.842714,0.32817 h -4.127171 v -5.11163 z m -8.391682,-1.04757 4.139804,-2.67572 0.58059,0.92135 -4.139805,2.57475 z m 4.808734,14.37575 c 0.420708,-0.14296 0.782537,-0.38704 1.085445,-0.73204 0.302908,-0.35341 0.546922,-0.8288 0.732029,-1.42622 0.193521,-0.5974 0.328162,-1.35048 0.403896,-2.25921 0.06742,-0.79937 0.04631,-1.48934 -0.06317,-2.06991 -0.100988,-0.58058 -0.281874,-1.08123 -0.542716,-1.50194 -0.252414,-0.42912 -0.576369,-0.79095 -0.971851,-1.08545 -0.387041,-0.29449 -0.833003,-0.5511 -1.337845,-0.76989 -0.496442,-0.21873 -1.043378,-0.41229 -1.64078,-0.58059 -0.597416,-0.17674 -1.228472,-0.35338 -1.893195,-0.53009 l 4.947554,-1.32525 0.113594,-2.99125 -8.746604,3.44564 1.022345,3.42038 c 0.395468,0.10098 0.820383,0.21033 1.274759,0.32814 0.462775,0.11771 0.921343,0.24403 1.375719,0.37865 0.454375,0.1262 0.89191,0.25664 1.312618,0.39126 0.429136,0.13456 0.807778,0.26927 1.135925,0.40388 0.328148,0.13456 0.593196,0.26927 0.795144,0.40388 0.210361,0.1262 0.319734,0.24822 0.328148,0.36604 0.01685,0.1177 -0.07578,0.23138 -0.277668,0.34078 -0.201948,0.10099 -0.546922,0.19353 -1.034951,0.27765 -0.513255,0.0841 -1.034951,0.16835 -1.565047,0.25242 -2.516152,0.29372 -5.101091,0.52164 -7.635919,0.3281 -0.353402,-0.0419 -0.605829,-0.15974 -0.757283,-0.3534 -0.151454,-0.19353 -0.231381,-0.48381 -0.239794,-0.87088 -0.0082,-0.39546 -0.0041,-0.93397 0.01233,-1.61554 l -1.337873,0.87088 c -0.319734,1.14434 -0.471188,2.12459 -0.454361,2.94077 0.01685,0.80777 0.159839,1.48514 0.429121,2.03205 0.277682,0.54692 0.664737,0.98025 1.161165,1.3 0.504856,0.31974 1.081225,0.55956 1.729121,0.71942 0.647896,0.15997 10.227572,0.0548 10.639867,-0.0884 z"
       id="text36"
       aria-label="زنجانـ لاگ"
       sodipodi:nodetypes="cscscsccccscsccccccscccccccccccccccccccccccccscccccssccccccsc" />
    <path
       id="text37"
       style="color:#000000;font-style:normal;font-variant:normal;font-weight:bold;font-stretch:normal;font-size:23.9028px;line-height:1.9;font-family:DimaAbdi;-inkscape-font-specification:'DimaAbdi Bold';font-variant-ligatures:normal;font-variant-position:normal;font-variant-caps:normal;font-variant-numeric:normal;font-variant-alternates:normal;font-variant-east-asian:normal;font-feature-settings:normal;font-variation-settings:normal;text-indent:0;text-align:start;text-decoration-line:none;text-decoration-style:solid;text-decoration-color:#000000;letter-spacing:-0.0298784px;word-spacing:-0.0149392px;text-transform:none;writing-mode:lr-tb;direction:rtl;text-orientation:mixed;dominant-baseline:auto;baseline-shift:baseline;text-anchor:start;white-space:normal;shape-padding:0;shape-margin:0;inline-size:0;clip-rule:nonzero;display:inline;overflow:visible;visibility:visible;isolation:auto;mix-blend-mode:normal;color-interpolation:sRGB;color-interpolation-filters:linearRGB;solid-color:#000000;solid-opacity:1;vector-effect:none;fill:#000000;fill-opacity:1;fill-rule:evenodd;stroke:none;stroke-width:2.20941;stroke-linecap:square;stroke-linejoin:miter;stroke-miterlimit:3.7;stroke-dasharray:none;stroke-dashoffset:0;stroke-opacity:1;-inkscape-stroke:none;paint-order:markers fill stroke;color-rendering:auto;image-rendering:auto;shape-rendering:auto;text-rendering:auto;enable-background:accumulate;stop-color:#000000"
       d="m 111.74269,151.33155 c -0.23508,0.008 -0.49073,0.0758 -0.76839,0.20216 -0.11771,0.0504 -0.22255,0.0919 -0.31512,0.12552 -0.084,0.0252 -0.15974,0.0596 -0.22721,0.10167 -0.0674,0.0419 -0.13058,0.10825 -0.18957,0.20084 -0.0506,0.0841 -0.10537,0.21077 -0.16438,0.37905 -0.0926,0.27766 -0.13455,0.55166 -0.12551,0.82092 0.008,0.26927 0.0789,0.5255 0.21343,0.76954 0.10099,0.17676 0.23581,0.3324 0.40416,0.46697 0.16836,0.13455 0.35825,0.23933 0.56859,0.31511 0.21033,0.0663 0.43345,0.0978 0.66905,0.0891 0.23559,-0.008 0.46701,-0.0676 0.6942,-0.17696 0.29449,-0.15157 0.51218,-0.35384 0.65535,-0.60627 0.14295,-0.26085 0.21829,-0.53368 0.22721,-0.81977 0.0177,-0.28609 -0.0329,-0.56421 -0.15067,-0.83348 -0.10935,-0.27769 -0.2745,-0.50488 -0.49324,-0.68163 -0.21033,-0.18515 -0.46662,-0.29825 -0.76953,-0.34023 -0.0736,-0.011 -0.15002,-0.0155 -0.22834,-0.0137 z m 23.21504,0 c -0.23479,0.008 -0.49225,0.0761 -0.76953,0.20216 -0.1173,0.0501 -0.22285,0.0921 -0.31513,0.12552 -0.084,0.0252 -0.15974,0.0596 -0.22719,0.10167 -0.0674,0.0419 -0.13059,0.10825 -0.18958,0.20084 -0.0506,0.0841 -0.10427,0.21077 -0.16326,0.37905 -0.0926,0.27766 -0.13566,0.55166 -0.12689,0.82092 0.008,0.26927 0.0802,0.5255 0.21476,0.76954 0.10099,0.17676 0.23581,0.3324 0.40417,0.46697 0.16835,0.13455 0.3571,0.23933 0.56744,0.31511 0.21033,0.0663 0.43349,0.0978 0.66908,0.0891 0.23561,-0.008 0.46699,-0.0676 0.69417,-0.17696 0.29449,-0.15157 0.51355,-0.35384 0.6565,-0.60627 0.14296,-0.26085 0.21829,-0.53368 0.2272,-0.81977 0.0177,-0.28609 -0.034,-0.56421 -0.1518,-0.83348 -0.10934,-0.27769 -0.27334,-0.50488 -0.49207,-0.68163 -0.21033,-0.18515 -0.46662,-0.29825 -0.76953,-0.34023 -0.0736,-0.011 -0.15003,-0.0155 -0.22835,-0.0137 z m -15.81198,2.10767 c -0.32817,0.0419 -0.71937,0.15929 -1.17373,0.3528 -0.44597,0.18514 -0.90872,0.39578 -1.38835,0.63139 -0.47119,0.22717 -0.93401,0.45443 -1.38837,0.6816 -0.45436,0.21875 -0.84969,0.38689 -1.18625,0.50466 -0.0177,0.34501 -0.004,0.77875 0.0375,1.30044 0.0422,0.51327 0.0928,1.0518 0.1518,1.61556 0.0674,0.56376 0.13875,1.12304 0.21453,1.67838 0.0758,0.54692 0.13897,1.02628 0.18957,1.43858 0.0926,0.81617 0.1973,1.49793 0.31512,2.04487 0.11784,0.53851 0.26511,0.98058 0.44186,1.32554 0.17675,0.33657 0.39566,0.5928 0.6565,0.76956 0.26084,0.16835 0.58455,0.28656 0.97161,0.35393 0.38705,0.0674 0.84987,0.10058 1.38838,0.10058 h 1.78453 l -0.0137,-5.11157 c -0.19354,0 -0.18183,0.038 -0.3334,-0.0378 -0.15156,-0.0758 -0.28641,-0.16814 -0.40417,-0.27744 -0.10934,-0.11771 -0.19331,-0.24453 -0.25233,-0.37907 -0.0589,-0.14317 -0.088,-0.27386 -0.088,-0.39162 z m 1.00245,7.6862 0.0137,5.11157 h 11.14341 v 0.001 c 0.22719,0 0.28407,0.0155 0.56173,0.0252 0.28609,0.008 0.57139,0.008 0.85745,0 0.2861,0 0.55594,-0.004 0.80837,-0.0137 0.25244,-0.0177 0.46187,-0.0459 0.63022,-0.088 0.31973,-0.0674 0.61031,-0.21452 0.87115,-0.44184 0.26927,-0.23559 0.5048,-0.52089 0.70675,-0.85744 0.21033,-0.33655 0.3919,-0.70702 0.54347,-1.11091 0.15134,-0.40388 0.27694,-0.80752 0.37791,-1.21139 0.10099,-0.4123 0.17653,-0.80766 0.2272,-1.18628 0.0589,-0.37865 0.0928,-0.71181 0.10168,-0.99788 l -5.88226,0.80834 v -10e-4 l -0.64851,-0.0378 c -0.0245,-0.0419 -0.0389,-0.0807 -0.0389,-0.11428 0,-0.0339 -0.0177,-0.0577 -0.0502,-0.0754 -0.0252,-0.37022 -0.0451,-0.76969 -0.0628,-1.19881 -0.0177,-0.42914 -0.0502,-0.85877 -0.10057,-1.28789 -0.0506,-0.43756 -0.13031,-0.86189 -0.23977,-1.2742 -0.10935,-0.42071 -0.27035,-0.8036 -0.48068,-1.14857 -0.20194,-0.3534 -0.47063,-0.65639 -0.80721,-0.90885 -0.32814,-0.26084 -0.74005,-0.45082 -1.23651,-0.56858 -0.34498,-0.0765 -0.72375,-0.0963 -1.13604,-0.0628 -0.41232,0.0336 -0.83778,0.10537 -1.2753,0.21453 -0.43756,0.10934 -0.87848,0.24838 -1.32443,0.41673 -0.44598,0.15996 -0.87559,0.3279 -1.28789,0.50465 -0.40388,0.17676 -0.77851,0.34887 -1.12348,0.51723 -0.34498,0.16836 -0.63969,0.31571 -0.8837,0.44187 l 0.41674,3.9504 c 0.34498,0.0681 0.74443,0.0728 1.19882,0.0137 0.45437,-0.0671 0.90886,-0.14296 1.36323,-0.22722 0.45438,-0.0926 0.88815,-0.16439 1.30045,-0.21454 0.41231,-0.0589 0.74846,-0.0506 1.0093,0.0252 l 0.0375,0.99677 h -2.78927 z m 21.92144,-6.85845 c -0.0693,-0.003 -0.14096,-10e-4 -0.21454,0.004 -0.34501,0.0419 -0.64798,0.14781 -0.90882,0.31625 -0.26084,0.15997 -0.46219,0.36113 -0.60513,0.60515 -0.13456,0.2356 -0.20216,0.50128 -0.20216,0.79577 0,0.29452 0.084,0.59333 0.25233,0.89627 0.0926,0.17675 0.22326,0.33244 0.39162,0.46698 0.17675,0.13456 0.36968,0.23934 0.58002,0.31513 0.21033,0.0685 0.43346,0.0967 0.66905,0.088 0.2356,-0.008 0.46699,-0.0665 0.69417,-0.17587 0.26925,-0.13456 0.47589,-0.31219 0.61883,-0.53092 0.14317,-0.22716 0.2313,-0.46686 0.26489,-0.71928 0.0336,-0.25246 0.0177,-0.50455 -0.0502,-0.75697 -0.0674,-0.26084 -0.18139,-0.49225 -0.34137,-0.6942 -0.15156,-0.20193 -0.34442,-0.35759 -0.58001,-0.46695 -0.17035,-0.0876 -0.36034,-0.13566 -0.5686,-0.14384 z m -2.52439,4.29638 c 0.0336,0.79934 0.0551,1.56099 0.0639,2.28462 0.008,0.72362 -0.0508,1.43855 -0.17697,2.14534 -0.1262,0.69839 -0.34518,1.405 -0.6565,2.1202 -0.3029,0.70679 -0.74913,1.45189 -1.33813,2.2344 l -0.18493,4.53157 c 0.47962,0.0177 1.87631,-0.93408 2.25494,-1.13603 0.38706,-0.20193 0.7368,-0.47179 1.04812,-0.80835 0.31975,-0.33658 0.60087,-0.72361 0.84491,-1.16115 0.25242,-0.43754 0.488,-0.8879 0.70674,-1.35068 0.1177,-0.25242 0.23201,-0.55129 0.34138,-0.89626 0.11771,-0.33656 0.23086,-0.69345 0.34022,-1.0721 0.10935,-0.37863 0.2152,-0.7657 0.31628,-1.16115 0.10935,-0.40388 0.20591,-0.79093 0.29,-1.16115 0.0924,-0.37023 0.17653,-0.71169 0.25232,-1.02301 0.0758,-0.31975 0.14317,-0.59258 0.20215,-0.81978 -0.27766,-0.21873 -0.60552,-0.45432 -0.98417,-0.70675 -0.37022,-0.26085 -0.75314,-0.51822 -1.14861,-0.77065 -0.39545,-0.25243 -0.78249,-0.48802 -1.16115,-0.70675 -0.37863,-0.21873 -0.71593,-0.39937 -1.01042,-0.54232 z m -25.76912,1.79254 -5.88111,0.8072 -4.70169,0.0628 v 5.02367 h 4.70169 c 0.22718,0 0.47933,0.004 0.75698,0.0137 0.2861,0.008 0.57251,0.008 0.85858,0 0.28609,0 0.55481,-0.004 0.80723,-0.0137 0.25241,-0.0177 0.46302,-0.0459 0.63137,-0.088 0.31975,-0.0674 0.61031,-0.21477 0.87115,-0.44185 0.26926,-0.23562 0.5048,-0.52201 0.70674,-0.8586 0.21034,-0.33655 0.39076,-0.707 0.54233,-1.11089 0.15156,-0.40389 0.27806,-0.80752 0.37904,-1.21141 0.10098,-0.41229 0.17653,-0.80762 0.22721,-1.18628 0.0589,-0.37865 0.0917,-0.71063 0.10058,-0.99673 z m 11.49621,7.604 c -0.0693,-0.003 -0.14096,5.6e-4 -0.21476,0.007 -0.34498,0.0419 -0.64795,0.14251 -0.90881,0.30257 -0.26085,0.16836 -0.46218,0.36951 -0.60514,0.60514 -0.13456,0.24399 -0.20215,0.51383 -0.20215,0.80834 0,0.29451 0.084,0.59336 0.2523,0.89627 0.0592,0.11291 0.13942,0.21365 0.2295,0.3094 -0.004,0.001 -0.0252,0.011 -0.0252,0.011 v 0.001 c 0.70531,0.88198 0.81714,1.9196 -1.01727,4.57954 0,0 0.0221,0.007 0.0252,0.008 -0.27716,0.40663 -0.4259,0.88711 -0.42701,1.37921 2.7e-4,1.35751 1.10068,2.45794 2.45819,2.45817 1.35794,3.8e-4 2.45904,-1.10021 2.45931,-2.45817 -2.5e-4,-0.5899 -0.21255,-1.16006 -0.59829,-1.60642 -0.001,-0.001 -0.003,-0.004 -0.004,-0.007 -0.011,-0.0137 -0.0228,-0.0267 -0.0343,-0.04 -1.08037,-1.27694 -1.53902,-2.95191 -0.60284,-4.01436 0.20658,-0.12511 0.37193,-0.28127 0.49095,-0.47041 0.14317,-0.21873 0.23131,-0.45432 0.26489,-0.70675 0.0336,-0.25242 0.0177,-0.50869 -0.0502,-0.76953 -0.0674,-0.25243 -0.18138,-0.47968 -0.34137,-0.68164 -0.15134,-0.20193 -0.34442,-0.36176 -0.58001,-0.47951 -0.17034,-0.0813 -0.36034,-0.12594 -0.56857,-0.13238 z"
       sodipodi:nodetypes="sccsccccsccccccccssccsccccsccccccccsccccccccccccssccscccccccccccccccccccccscccccccssccscccccccccscccsccccccscccscccccccccccscccccsscccccsccccccccccscccscccccccccsccccscccs" />
    <path
       style="font-size:4.21841px;line-height:1.9;font-family:'Dima Web';-inkscape-font-specification:'Dima Web';letter-spacing:1.00927px;word-spacing:-0.00263651px;direction:rtl;fill-rule:evenodd;stroke-width:3.75598;stroke-linecap:square;stroke-miterlimit:3.7;paint-order:markers fill stroke"
       d="m 80.913377,184.81064 v 0.0177 l -0.139806,0.45667 c -0.0185,0.0559 -0.02795,0.1025 -0.02795,0.14914 0,0.084 0.03727,0.1306 0.121131,0.14914 0.07454,0.0177 0.186409,0.0466 0.316884,0.0744 0.130448,0.0281 0.2796,0.0559 0.428724,0.0744 0.149111,0.0177 0.298249,0.0374 0.456692,0.0559 0.158442,0.0177 0.307566,0.0177 0.438042,0.0177 0.298249,0 0.577862,-0.0281 0.838827,-0.10249 0.251633,-0.0744 0.466008,-0.16769 0.643086,-0.29825 0.177078,-0.13031 0.316884,-0.2796 0.419407,-0.46601 0.09318,-0.17719 0.14911,-0.37279 0.14911,-0.59647 0,-0.22371 -0.06522,-0.42874 -0.177077,-0.61515 -0.12113,-0.18646 -0.270282,-0.34484 -0.447374,-0.49397 -0.186409,-0.13985 -0.382122,-0.27027 -0.605815,-0.39144 l -0.652405,-0.34484 c -0.149138,-0.0744 -0.298248,-0.14914 -0.428724,-0.22368 -0.130448,-0.0744 -0.251647,-0.15842 -0.344851,-0.24233 -0.102495,-0.0744 -0.186409,-0.15841 -0.242329,-0.25166 -0.05591,-0.084 -0.08386,-0.17719 -0.08386,-0.28892 0,-0.22368 0.09318,-0.40077 0.288931,-0.54058 0.195727,-0.13058 0.456677,-0.20503 0.782893,-0.20503 0.09318,0 0.195727,0.0177 0.316884,0.0374 0.111813,0.0281 0.232998,0.0559 0.354169,0.0932 0.111813,0.0373 0.22368,0.0744 0.33552,0.11181 0.111813,0.0374 0.205031,0.0744 0.279614,0.1025 l 0.139807,-0.4567 c 0.0185,-0.0374 0.02795,-0.0932 0.02795,-0.14913 0,-0.084 -0.03727,-0.13985 -0.111813,-0.15842 -0.07454,-0.0177 -0.177091,-0.0373 -0.288931,-0.0652 -0.111813,-0.0177 -0.242329,-0.0466 -0.372804,-0.0652 -0.139821,-0.0177 -0.279614,-0.0374 -0.419407,-0.0559 -0.149111,-0.0177 -0.279614,-0.0278 -0.410089,-0.0278 -0.260964,0 -0.493976,0.0373 -0.69902,0.11181 -0.214349,0.0744 -0.39144,0.18648 -0.540564,0.31687 -0.149111,0.13987 -0.270283,0.30759 -0.344852,0.49398 -0.08386,0.19575 -0.12113,0.41009 -0.12113,0.6431 0,0.17719 0.03727,0.33552 0.130448,0.48466 0.08386,0.14912 0.195727,0.2796 0.344838,0.40076 0.14911,0.13058 0.307566,0.24233 0.493975,0.35417 0.186409,0.11181 0.372805,0.2143 0.559214,0.30756 l 0.540564,0.2796 c 0.16776,0.0932 0.326202,0.19576 0.456691,0.28893 0.130448,0.0932 0.242329,0.19576 0.326202,0.29825 0.08386,0.1025 0.130448,0.21431 0.130448,0.32619 0,0.23301 -0.130448,0.41942 -0.391453,0.55923 -0.260965,0.13986 -0.596485,0.20503 -1.025209,0.20503 -0.09318,0 -0.214362,-0.008 -0.344851,-0.0373 -0.130448,-0.0281 -0.270282,-0.0652 -0.410089,-0.1025 -0.139807,-0.0373 -0.270282,-0.0744 -0.391454,-0.12113 -0.130448,-0.0374 -0.223679,-0.0744 -0.298235,-0.11181 z m 6.694255,-4.10087 v 4.51096 c 0,0.0559 -0.0096,0.10249 -0.0096,0.15841 0,0.0559 -0.0096,0.11182 -0.0096,0.15842 0,0.0559 -0.0096,0.0932 -0.0096,0.13058 0,0.0374 0,0.0652 0,0.0652 0.0096,0.008 0.05591,0.0177 0.139807,0.0281 0.08386,0.0177 0.177091,0.0177 0.270295,0.0177 0.09318,0 0.177078,0 0.260965,-0.0177 0.08386,-0.008 0.130448,-0.0177 0.149111,-0.0281 0,0 -0.0096,-0.0281 -0.0096,-0.0652 0,-0.0374 -0.0096,-0.0744 -0.0096,-0.13058 0,-0.0466 -0.0096,-0.1025 -0.0096,-0.15842 0,-0.0559 0,-0.10249 0,-0.15841 v -4.51096 c 0,-0.0932 0,-0.19576 0.0096,-0.30759 0,-0.11181 0.0096,-0.17719 0.0185,-0.19576 -0.0185,0 -0.06522,-0.008 -0.149111,-0.0278 -0.08386,-0.0177 -0.16776,-0.0281 -0.260965,-0.0281 -0.09318,0 -0.186409,0.008 -0.270296,0.0281 -0.08386,0.0177 -0.130447,0.0278 -0.139806,0.0278 0,0.0177 0.0096,0.084 0.0185,0.19576 0,0.11181 0.0096,0.21432 0.0096,0.30759 z m 4.830206,4.52026 v -2.87063 l -0.02795,-0.32619 v -0.14913 l 2.851973,3.9238 v -0.0177 c 0.09318,0 0.177091,0 0.251647,-0.0177 0.07454,-0.008 0.12113,-0.0177 0.13982,-0.0281 0,0 -0.0096,-0.0281 -0.0096,-0.0652 0,-0.0374 -0.0096,-0.0744 -0.0096,-0.13059 0,-0.0466 -0.0096,-0.10249 -0.0096,-0.15841 0,-0.0559 0,-0.1025 0,-0.15842 v -4.51089 c 0,-0.0932 0,-0.19576 0.0096,-0.30754 0.0096,-0.11182 0.0185,-0.17719 0.02795,-0.19577 -0.01864,0 -0.06522,-0.008 -0.139821,-0.0281 -0.08386,-0.0177 -0.16776,-0.0281 -0.260964,-0.0281 -0.09318,0 -0.186409,0.008 -0.260965,0.0281 -0.08386,0.0177 -0.130448,0.0281 -0.139806,0.0281 0,0.0177 0.0096,0.084 0.0185,0.19577 0.0096,0.1118 0.0185,0.21431 0.0185,0.30754 v 3.29935 l -2.814702,-3.85854 c -0.09318,0 -0.186409,0.008 -0.260965,0.0177 -0.08386,0.0177 -0.130448,0.0278 -0.139806,0.0278 0,0.008 0,0.0281 0,0.0652 0,0.0374 0.0096,0.084 0.0096,0.13058 0,0.0559 0.0096,0.11181 0.0096,0.16771 0,0.0559 0.0096,0.11181 0.0096,0.14912 v 4.51096 c 0,0.0932 -0.0096,0.20505 -0.0096,0.3169 -0.0096,0.11182 -0.0185,0.1772 -0.0185,0.18648 0.0096,0.008 0.05591,0.0177 0.130448,0.0374 0.07454,0.0177 0.16776,0.0177 0.260964,0.0177 0.09318,0 0.177078,0 0.251647,-0.0177 0.07454,-0.0177 0.12113,-0.0281 0.139807,-0.0374 -0.0096,-0.008 -0.0185,-0.0744 -0.0185,-0.18648 -0.0096,-0.11181 -0.0096,-0.22368 -0.0096,-0.3169 z m 6.256199,-2.26481 c 0,0.42874 0.05591,0.82018 0.167691,1.16503 0.111813,0.35417 0.270269,0.65242 0.475327,0.89474 0.20503,0.25165 0.447359,0.44736 0.736295,0.57785 0.27961,0.13986 0.59648,0.20504 0.95065,0.20504 0.29825,0 0.56853,-0.0177 0.82951,-0.0652 0.25164,-0.0466 0.44736,-0.0932 0.58716,-0.1306 0.0744,-0.0177 0.11182,-0.0652 0.11182,-0.13986 0,-0.0281 -0.008,-0.0559 -0.008,-0.084 -0.008,-0.0177 -0.0177,-0.0466 -0.0281,-0.084 l -0.14914,-0.45668 c -0.14913,0.0652 -0.33552,0.13058 -0.5592,0.20502 -0.22368,0.0744 -0.41941,0.10249 -0.60582,0.10249 -0.26095,0 -0.50328,-0.0466 -0.70834,-0.15841 -0.2143,-0.1025 -0.39144,-0.25163 -0.540573,-0.43804 -0.149124,-0.18647 -0.270268,-0.41941 -0.354141,-0.68969 -0.084,-0.2703 -0.121131,-0.56855 -0.121131,-0.90407 0,-0.32619 0.03727,-0.62443 0.121131,-0.89473 0.084,-0.27028 0.20503,-0.50329 0.354141,-0.68969 0.149133,-0.18648 0.326233,-0.33552 0.540573,-0.44736 0.20504,-0.10249 0.44739,-0.15841 0.70834,-0.15841 0.18648,0 0.38214,0.0374 0.60582,0.11181 0.22368,0.0744 0.41009,0.13986 0.5592,0.19575 l 0.14914,-0.45667 c 0.008,-0.0281 0.0177,-0.0559 0.0281,-0.084 0,-0.0177 0.008,-0.0466 0.008,-0.084 0,-0.0744 -0.0374,-0.12113 -0.11182,-0.13986 -0.13986,-0.0374 -0.33552,-0.0744 -0.58716,-0.12113 -0.26098,-0.0466 -0.53126,-0.0744 -0.82951,-0.0744 -0.35417,0 -0.67104,0.0744 -0.95065,0.20503 -0.288936,0.13986 -0.531265,0.33552 -0.736295,0.57785 -0.205031,0.25166 -0.363487,0.54989 -0.475327,0.89474 -0.111812,0.35417 -0.167691,0.73628 -0.167691,1.16502 z m 6.992483,-2.30208 -0.008,4.6135 c 0,0.0559 -0.008,0.10249 -0.008,0.15841 0,0.0559 -0.008,0.11183 -0.008,0.15843 0,0.0559 -0.008,0.0932 -0.008,0.13058 0,0.0374 0,0.0652 0,0.0652 0,0 0.0374,0 0.0932,0 0.0559,0 0.13059,-0.008 0.20503,-0.008 l 0.233,-0.008 c 0.0744,0 0.13986,-0.008 0.19575,-0.008 h 2.11568 c 0.12114,0 0.22368,0 0.29823,0 0.0744,0 0.13058,-0.0177 0.1677,-0.0466 0.0373,-0.0177 0.0559,-0.0559 0.0744,-0.11181 0.008,-0.0559 0.0177,-0.13059 0.0177,-0.22368 0,-0.0932 -0.008,-0.16769 -0.0177,-0.23302 -0.0177,-0.0559 -0.0278,-0.0932 -0.0278,-0.11181 -0.008,0 -0.0281,0.008 -0.0652,0.008 -0.0374,0 -0.084,0.008 -0.13059,0.008 -0.0559,0 -0.11181,0.008 -0.16769,0.008 -0.0559,0 -0.11181,0 -0.14914,0 h -1.68697 c -0.0744,0 -0.13986,0.008 -0.20503,0.008 -0.0652,0 -0.12113,0.008 -0.15842,0.008 v -1.97587 h 1.1184 c 0.0932,0 0.19576,0.008 0.30757,0.008 0.11181,0.008 0.1772,0.0177 0.19575,0.0177 0,-0.008 0.008,-0.0466 0.0281,-0.11181 0.0177,-0.0652 0.0281,-0.14914 0.0281,-0.24233 0,-0.0933 -0.008,-0.1772 -0.0281,-0.26095 -0.0177,-0.0744 -0.0281,-0.12113 -0.0281,-0.13986 -0.0177,0.008 -0.084,0.0177 -0.19575,0.0177 -0.11181,0.008 -0.21431,0.008 -0.30757,0.008 h -1.07181 l -0.0177,0.008 h 0.0374 v -0.0177 l -0.0559,-0.10249 v -1.43531 c 0.0373,0 0.10249,0.008 0.19575,0.008 0.0932,0 0.1772,0 0.25165,0 h 1.60306 c 0.0373,0 0.0932,0.008 0.14913,0.008 0.0559,0 0.11182,0.008 0.1677,0.008 0.0466,0 0.0933,0.008 0.13058,0.008 0.0374,0 0.0559,0 0.0652,0 0,-0.008 0.008,-0.0466 0.0278,-0.11181 0.008,-0.0559 0.0177,-0.13986 0.0177,-0.233 0,-0.0932 -0.008,-0.15841 -0.0177,-0.21432 -0.0177,-0.0559 -0.0374,-0.0932 -0.0744,-0.12113 -0.0374,-0.0177 -0.0932,-0.0374 -0.16769,-0.0374 -0.0744,0 -0.17721,-0.008 -0.29825,-0.008 h -2.10637 c -0.0559,0 -0.12113,0 -0.19575,0 l -0.233,-0.008 c -0.084,0 -0.15841,-0.008 -0.21431,-0.008 -0.0559,0 -0.0932,-0.008 -0.0932,-0.008 0,0.0744 0,0.13986 0.008,0.19575 0,0.0559 0.008,0.11181 0.008,0.16769 0,0.0559 0.008,0.11181 0.008,0.15842 z m 10.40019,4.55759 v -4.51096 c 0,-0.0932 0,-0.19576 0.008,-0.30759 0,-0.11181 0.008,-0.17719 0.0177,-0.19576 -0.11181,-0.0374 -0.26096,-0.0559 -0.44736,-0.0559 -0.0932,0 -0.18646,0.0374 -0.27961,0.0932 -0.0932,0.0652 -0.16771,0.13032 -0.23301,0.20503 -0.0744,0.0744 -0.13059,0.14914 -0.17697,0.21432 -0.0466,0.0652 -0.0744,0.1025 -0.0744,0.1025 0.008,0.0177 0.0177,0.084 0.0374,0.19575 0.0177,0.11181 0.0281,0.21432 0.0281,0.30758 l 0.37282,-0.18647 v 4.13817 c 0,0.0559 -0.008,0.10249 -0.008,0.15841 0,0.0559 -0.008,0.11182 -0.008,0.15842 0,0.0559 -0.008,0.0932 -0.008,0.13058 0,0.0373 0,0.0652 0,0.0652 0.008,0.008 0.0559,0.0177 0.13985,0.0281 0.0744,0.0177 0.16769,0.0177 0.26097,0.0177 0.0932,0 0.17719,0 0.26095,-0.0177 0.0744,-0.008 0.12113,-0.0177 0.13987,-0.0281 0,0 -0.008,-0.0281 -0.008,-0.0652 0,-0.0374 -0.008,-0.0744 -0.008,-0.13058 0,-0.0466 -0.008,-0.1025 -0.008,-0.15842 0,-0.0559 0,-0.10249 0,-0.15841 z m 2.91958,-1.18367 0.0281,0.44736 c 0,0 0.0278,0 0.0652,0 0.0373,0 0.0744,-0.008 0.13031,-0.008 0.0466,0 0.1025,-0.008 0.15842,-0.008 0.0559,0 0.10249,-0.008 0.15841,-0.008 h 2.49779 v 0.76427 c 0,0.0559 -0.008,0.10248 -0.008,0.15841 0,0.0559 -0.008,0.11181 -0.008,0.15839 0,0.0559 -0.008,0.0932 -0.008,0.1306 0,0.0374 0,0.0652 0,0.0652 0.008,0.008 0.0559,0.0177 0.13986,0.0281 0.0744,0.0177 0.16769,0.0177 0.26095,0.0177 0.0932,0 0.17719,0 0.26098,-0.0177 0.0744,-0.008 0.12113,-0.0177 0.13985,-0.0281 0,0 -0.008,-0.0281 -0.008,-0.0652 0,-0.0373 -0.008,-0.0744 -0.008,-0.1306 0,-0.0466 -0.008,-0.10249 -0.008,-0.15839 0,-0.0559 0,-0.10249 0,-0.15841 v -0.76427 c 0.11181,0 0.20505,0 0.2796,-0.008 0.0744,-0.008 0.13059,-0.0281 0.16771,-0.0559 0.0374,-0.0281 0.0559,-0.0744 0.0744,-0.13058 0.008,-0.0559 0.0177,-0.13986 0.0177,-0.233 0,-0.0932 -0.008,-0.15841 -0.0177,-0.20504 -0.0177,-0.0466 -0.0281,-0.0744 -0.0281,-0.0932 -0.0177,0.008 -0.0744,0.0177 -0.18648,0.0177 -0.11181,0.008 -0.2143,0.008 -0.30755,0.008 v -2.11569 c 0,-0.0932 0,-0.19575 0.008,-0.30756 0,-0.11182 0.008,-0.1772 0.0177,-0.19576 -0.0177,0 -0.0652,-0.008 -0.13985,-0.0278 -0.084,-0.0177 -0.1677,-0.0281 -0.26098,-0.0281 -0.0932,0 -0.18648,0.008 -0.26095,0.0281 -0.084,0.0177 -0.13058,0.0278 -0.13986,0.0278 0,0.0177 0.008,0.084 0.0177,0.19576 0,0.11181 0.008,0.2143 0.008,0.30756 v 2.11569 h -1.90131 l -0.39144,0.084 0.29822,-0.25164 c 0.26098,-0.34486 0.48466,-0.75494 0.67107,-1.23027 0.18648,-0.46601 0.34485,-0.98794 0.47533,-1.55646 0.0177,-0.0932 0.0374,-0.19575 0.0747,-0.30758 0.0278,-0.11181 0.0466,-0.17718 0.0652,-0.19575 -0.0177,-0.008 -0.0652,-0.0281 -0.13986,-0.0559 -0.0744,-0.0281 -0.15842,-0.0559 -0.25165,-0.0744 -0.0559,-0.008 -0.10249,-0.0177 -0.14914,-0.0177 -0.0559,0 -0.0932,0 -0.13058,-0.008 -0.0559,0 -0.0932,0 -0.13059,-0.008 -0.008,0.0652 -0.0177,0.13058 -0.0278,0.18648 -0.0177,0.0559 -0.0281,0.11181 -0.0281,0.16769 -0.008,0.0559 -0.0177,0.11181 -0.0281,0.15841 -0.11182,0.48463 -0.22371,0.90405 -0.32623,1.23959 -0.11182,0.34485 -0.22368,0.6431 -0.33552,0.90405 -0.11182,0.26098 -0.233,0.48466 -0.36349,0.68036 -0.13058,0.19575 -0.27028,0.38215 -0.41941,0.56855 z m 9.44368,-0.7456 0.0177,-0.0177 c 0.0177,-0.0177 0.0559,-0.0466 0.0932,-0.0744 l 0.10249,-0.084 c 0.0374,-0.0281 0.0652,-0.0559 0.0932,-0.0744 0.0281,-0.0177 0.0466,-0.0281 0.0466,-0.0374 0,0 -0.0177,-0.0177 -0.0466,-0.0374 -0.0278,-0.0177 -0.0559,-0.0373 -0.0932,-0.0652 l -0.10249,-0.084 c -0.0373,-0.0281 -0.0744,-0.0559 -0.0932,-0.084 -0.0278,-0.0177 -0.0559,-0.0559 -0.084,-0.0932 -0.0374,-0.0374 -0.0652,-0.0652 -0.084,-0.10249 l -0.0744,-0.0932 c -0.0177,-0.0281 -0.0374,-0.0466 -0.0374,-0.0466 -0.008,0 -0.0281,0.0177 -0.0466,0.0466 l -0.0652,0.0932 c -0.0281,0.0373 -0.0559,0.0652 -0.084,0.10249 -0.0374,0.0374 -0.0652,0.0744 -0.084,0.0932 -0.0281,0.0281 -0.0559,0.0559 -0.0932,0.084 -0.0374,0.0374 -0.0744,0.0652 -0.11181,0.084 l -0.0932,0.0744 c -0.0281,0.0177 -0.0374,0.0373 -0.0374,0.0373 0,0.008 0.008,0.0281 0.0374,0.0466 l 0.0932,0.0652 c 0.0374,0.0281 0.0747,0.0559 0.11181,0.084 0.0373,0.0374 0.0652,0.0652 0.0932,0.084 0.0177,0.0278 0.0466,0.0559 0.0744,0.0932 l 0.084,0.11182 c 0.0278,0.0373 0.0559,0.0652 0.0744,0.0932 0.0177,0.0281 0.0278,0.0373 0.0373,0.0373 0,0 0.0177,-0.008 0.0374,-0.0373 0.0177,-0.0281 0.0374,-0.0559 0.0652,-0.0932 l 0.084,-0.11182 c 0.0278,-0.0374 0.0559,-0.0652 0.084,-0.0932 z m -1.63103,-0.30758 c 0,-0.32623 0.0281,-0.62448 0.0932,-0.89474 0.0652,-0.27028 0.15841,-0.50329 0.2796,-0.6897 0.11181,-0.18647 0.25164,-0.33552 0.4194,-0.44738 0.1677,-0.1025 0.35417,-0.15842 0.5592,-0.15842 0.20504,0 0.38214,0.0559 0.5499,0.15842 0.16769,0.11181 0.30758,0.26097 0.42871,0.44738 0.11181,0.18648 0.20505,0.41942 0.27031,0.6897 0.0652,0.27026 0.1025,0.56851 0.1025,0.89474 0,0.33552 -0.0373,0.63376 -0.1025,0.90405 -0.0652,0.27028 -0.15841,0.50329 -0.27031,0.6897 -0.12113,0.18647 -0.26095,0.33552 -0.42871,0.43804 -0.16769,0.11181 -0.34484,0.15842 -0.5499,0.15842 -0.20503,0 -0.39144,-0.0466 -0.5592,-0.15842 -0.16769,-0.10249 -0.30756,-0.25166 -0.4194,-0.43804 -0.12113,-0.18646 -0.21432,-0.41942 -0.2796,-0.6897 -0.0652,-0.27029 -0.0932,-0.56853 -0.0932,-0.90405 z m -0.7922,0 c 0,0.4287 0.0466,0.82016 0.14913,1.16503 0.10249,0.35415 0.25166,0.6524 0.43807,0.89473 0.18646,0.25163 0.41009,0.44736 0.67104,0.57785 0.26098,0.13986 0.55921,0.20503 0.88541,0.20503 0.3169,0 0.61515,-0.0652 0.8761,-0.20503 0.26098,-0.13059 0.49398,-0.32622 0.68039,-0.57785 0.18647,-0.24233 0.3262,-0.54058 0.42871,-0.89473 0.10249,-0.34487 0.15841,-0.73633 0.15841,-1.16503 0,-0.42874 -0.0559,-0.81085 -0.15841,-1.16502 -0.1025,-0.34486 -0.24233,-0.64309 -0.42871,-0.89475 -0.18648,-0.24233 -0.41941,-0.43805 -0.68039,-0.57785 -0.26095,-0.13059 -0.5592,-0.20503 -0.8761,-0.20503 -0.3262,0 -0.62443,0.0744 -0.88541,0.20503 -0.26095,0.13987 -0.48463,0.33552 -0.67104,0.57785 -0.18648,0.25166 -0.33555,0.5499 -0.43807,0.89475 -0.1025,0.35417 -0.14913,0.73628 -0.14913,1.16502 z m 7.08567,1.97587 -0.0281,0.8295 c 0,0 0.0281,0 0.0652,0 0.0374,0 0.084,-0.008 0.13987,-0.008 0.0559,0 0.11181,-0.008 0.16769,-0.008 0.0559,0 0.11181,-0.008 0.16769,-0.008 h 2.59099 c 0.12113,0 0.2237,0 0.29825,0 0.0744,0 0.13059,-0.0177 0.16769,-0.0466 0.0374,-0.0177 0.0559,-0.0559 0.0744,-0.11181 0.008,-0.0559 0.0177,-0.13058 0.0177,-0.22368 0,-0.0932 -0.008,-0.16769 -0.0177,-0.233 -0.0177,-0.0559 -0.0281,-0.0932 -0.0281,-0.11181 -0.008,0 -0.0281,0.008 -0.0652,0.008 -0.0374,0 -0.084,0.008 -0.13059,0.008 -0.0559,0 -0.11181,0.008 -0.16769,0.008 -0.0559,0 -0.11181,0 -0.14914,0 h -1.89197 c -0.0559,0 -0.12113,0.008 -0.21433,0.008 -0.0932,0 -0.18646,0 -0.2796,0 -0.11181,0.008 -0.23299,0.008 -0.34483,0.008 l -0.008,-0.0177 0.37281,-0.0744 c 0,-0.0744 0.0278,-0.16769 0.0932,-0.26098 0.0652,-0.0932 0.15842,-0.19575 0.2703,-0.29824 0.11181,-0.10249 0.23301,-0.21432 0.38212,-0.3262 l 0.46601,-0.34485 0.5965,-0.46599 c 0.20503,-0.15842 0.3821,-0.32623 0.54989,-0.50331 0.15842,-0.1772 0.28892,-0.3635 0.39144,-0.56853 0.1025,-0.19576 0.15842,-0.40076 0.15842,-0.62447 0,-0.47532 -0.14914,-0.8388 -0.44736,-1.09044 -0.29825,-0.24234 -0.73631,-0.37282 -1.31416,-0.37282 -0.1677,0 -0.34485,0.0177 -0.54058,0.0373 -0.19575,0.0177 -0.38212,0.0466 -0.5592,0.0744 -0.1772,0.0281 -0.3262,0.0559 -0.45669,0.084 -0.13058,0.0374 -0.2143,0.0559 -0.24233,0.0652 l 0.21433,0.71766 c 0.0744,-0.0281 0.16769,-0.0652 0.29824,-0.11181 0.12114,-0.0374 0.25165,-0.084 0.39144,-0.12113 0.13985,-0.0374 0.27962,-0.0652 0.41009,-0.0932 0.13059,-0.0281 0.25165,-0.0466 0.34487,-0.0466 0.37279,0 0.65239,0.0744 0.84812,0.22368 0.18647,0.14914 0.28893,0.35417 0.28893,0.63377 0,0.11181 -0.0373,0.23301 -0.11182,0.35417 -0.0747,0.12113 -0.1772,0.24233 -0.29824,0.3635 -0.13059,0.12113 -0.27029,0.24233 -0.42874,0.3728 l -0.50328,0.38213 -0.5592,0.43805 c -0.18648,0.14914 -0.35417,0.29825 -0.49398,0.45669 -0.14914,0.15842 -0.26098,0.3169 -0.35417,0.48466 -0.0932,0.16769 -0.13058,0.33552 -0.13058,0.5126 z"
       id="text44"
       aria-label="SINCE 1402" />
  </g>
</svg>
