<?xml version="1.0" encoding="UTF-8" standalone="no"?>
<!-- Created with Inkscape (http://www.inkscape.org/) -->

<svg
   width="210mm"
   height="210mm"
   viewBox="0 0 210 210"
   version="1.1"
   id="svg1"
   inkscape:version="1.4.2 (ebf0e940d0, 2025-05-08)"
   sodipodi:docname="zanjanlug_logo_square_imageonly.svg"
   xmlns:inkscape="http://www.inkscape.org/namespaces/inkscape"
   xmlns:sodipodi="http://sodipodi.sourceforge.net/DTD/sodipodi-0.dtd"
   xmlns:xlink="http://www.w3.org/1999/xlink"
   xmlns="http://www.w3.org/2000/svg"
   xmlns:svg="http://www.w3.org/2000/svg">
  <sodipodi:namedview
     id="namedview1"
     pagecolor="#505050"
     bordercolor="#eeeeee"
     borderopacity="1"
     inkscape:showpageshadow="0"
     inkscape:pageopacity="0"
     inkscape:pagecheckerboard="0"
     inkscape:deskcolor="#505050"
     inkscape:document-units="mm"
     inkscape:zoom="0.69842873"
     inkscape:cx="176.82549"
     inkscape:cy="418.08131"
     inkscape:window-width="1920"
     inkscape:window-height="1004"
     inkscape:window-x="0"
     inkscape:window-y="0"
     inkscape:window-maximized="1"
     inkscape:current-layer="layer1" />
  <defs
     id="defs1">
    <radialGradient
       inkscape:collect="always"
       xlink:href="#linearGradient43"
       id="radialGradient44"
       cx="114.68661"
       cy="113.497"
       fx="114.68661"
       fy="113.497"
       r="27.086096"
       gradientUnits="userSpaceOnUse"
       gradientTransform="matrix(0.5725024,-1.4214452,1.4466516,0.58265207,-113.29976,211.6109)" />
    <linearGradient
       id="linearGradient43"
       inkscape:collect="always">
      <stop
         style="stop-color:#666666;stop-opacity:1;"
         offset="0"
         id="stop43" />
      <stop
         style="stop-color:#666666;stop-opacity:0;"
         offset="1"
         id="stop44" />
    </linearGradient>
  </defs>
  <g
     inkscape:label="Layer 1"
     inkscape:groupmode="layer"
     id="layer1">
    <rect
       style="fill:#ffffff;fill-opacity:1;fill-rule:evenodd;stroke-width:3.75599;stroke-linecap:square;stroke-miterlimit:3.7;paint-order:markers fill stroke"
       id="rect42"
       width="210"
       height="210"
       x="0"
       y="0"
       ry="28.408094"
       rx="28.408094" />
    <g
       id="g44"
       transform="matrix(3.1113383,0,0,3.1113383,-262.93367,-249.60544)">
      <circle
         style="fill:#333333;fill-opacity:1;fill-rule:evenodd;stroke-width:1.7;stroke-linecap:square;stroke-miterlimit:3.7;paint-order:markers fill stroke"
         id="circle42"
         cx="115.73405"
         cy="112.15034"
         r="27.086096" />
      <circle
         style="fill:url(#radialGradient44);fill-opacity:1;fill-rule:evenodd;stroke-width:1.7;stroke-linecap:square;stroke-miterlimit:3.7;paint-order:markers fill stroke"
         id="path6"
         cx="115.73405"
         cy="112.15034"
         r="27.086096" />
      <g
         id="g25"
         transform="matrix(0.08555405,0.01763547,-0.01763547,0.08555405,-82.283995,-196.63888)"
         style="stroke-width:0.537096">
        <path
           fill="#202020"
           d="m 3312.8857,3168.0859 c -5,-5.6 -7.3,-15.95 -9.85,-27 -2.5,-11 -5.35,-22.85 -14.4,-30.5 v -0.05 a 37.8,37.8 0 0 0 -11.15,-6.7 c 12.6,-37.25 7.65,-74.35 -5,-107.85 -15.6,-41.15 -42.75,-77 -63.5,-101.5 -23.2,-29.3 -45.9,-57.1 -45.5,-98.15 0.7,-62.7 6.9,-178.95 -103.4,-179.1 -4.5,0 -9.15,0.2 -14,0.6 -123.3,9.9 -90.6,140.15 -92.45,183.75 -2.25,31.9 -8.7,57 -30.65,88.2 -25.75,30.65 -62,80.2 -79.2,131.85 -8.1,24.35 -12,49.2 -8.4,72.7 -1.15,1 -2.2,2.05 -3.2,3.15 -7.55,8.05 -13.15,17.85 -19.4,24.45 -5.8,5.8 -14.1,8 -23.2,11.25 -9.15,3.3 -19.15,8.1 -25.2,19.75 v 0.05 a 35.1,35.1 0 0 0 -3.85,16.95 c 0,5.4 0.8,10.85 1.6,16.1 1.7,11 3.4,21.35 1.15,28.35 -7.2,19.75 -8.15,33.35 -3.05,43.25 5.1,9.95 15.5,14.3 27.35,16.75 23.65,5 55.7,3.75 80.95,17.1 l 2.15,-4.1 -2.15,4.1 c 27,14.15 54.45,19.15 76.3,14.2 a 49.5,49.5 0 0 0 35.3,-27.6 c 17.1,-0.1 35.85,-7.3 65.9,-9 20.4,-1.6 45.9,7.25 75.15,5.65 a 40.3,40.3 0 0 0 3.4,9.15 l 0.05,0.05 c 11.35,22.75 32.5,33.1 55,31.35 22.5,-1.8 46.4,-15.05 65.75,-38.1 l -3.5,-3 3.5,3 c 18.5,-22.4 49.1,-31.65 69.4,-43.9 10.15,-6.15 18.4,-13.8 19,-24.95 0.65,-11.1 -5.9,-23.55 -20.9,-40.25 z"
           id="path1-1"
           style="fill:#333333;stroke-width:26.8548" />
        <path
           fill="#f8bf11"
           d="m 3324.5357,3207.8359 c -0.35,6.85 -5.35,12 -14.5,17.5 -18.4,11.1 -50.95,20.7 -71.7,45.9 -18.1,21.5 -40.1,33.25 -59.5,34.8 -19.35,1.5 -36.05,-6.5 -45.95,-26.3 v -0.1 c -6.15,-11.65 -3.6,-30 1.55,-49.35 5.15,-19.35 12.55,-39.25 13.55,-55.4 v -0.05 c 1,-20.75 2.2,-38.8 5.7,-52.75 3.5,-14 8.95,-23.4 18.65,-28.75 a 43.8,43.8 0 0 1 1.35,-0.7 c 1.1,17.95 10,36.25 25.7,40.2 17.15,4.5 41.9,-10.2 52.35,-22.25 l 6.1,-0.2 c 9.2,-0.25 16.85,0.3 24.75,7.15 v 0.05 c 6.05,5.1 8.95,14.8 11.45,25.6 2.5,10.85 4.5,22.65 11.95,31.05 14.35,16 19,26.7 18.55,33.6 z m -348.95,50.75 v 0.15 c -1.7,21.75 -14,33.6 -32.8,37.9 -18.85,4.3 -44.4,0 -69.9,-13.3 -28.25,-15 -61.85,-13.5 -83.35,-18 -10.8,-2.25 -17.85,-5.65 -21.05,-11.9 -3.2,-6.3 -3.3,-17.25 3.55,-36 v -0.05 l 0.05,-0.1 c 3.4,-10.45 0.9,-21.9 -0.75,-32.65 -1.65,-10.7 -2.45,-20.5 1.2,-27.3 l 0.05,-0.05 c 4.7,-9.05 11.6,-12.3 20.15,-15.35 8.5,-3.1 18.65,-5.5 26.65,-13.5 l 0.05,-0.05 h 0.05 c 7.4,-7.85 13,-17.65 19.5,-24.6 5.5,-5.85 11,-9.75 19.25,-9.8 h 0.25 a 30.5,30.5 0 0 1 4.65,0.4 c 11,1.65 20.55,9.35 29.8,21.85 l 26.65,48.55 v 0.05 c 7.1,14.8 22.05,31.1 34.75,47.7 12.7,16.65 22.5,33.3 21.25,46.05 z"
           id="path2"
           style="fill:#ff9955;stroke-width:26.8548" />
        <path
           fill="#d6a312"
           d="m 3108.4857,2805.8359 c -2.15,-4.2 -6.5,-8.2 -14,-11.25 -15.5,-6.65 -22.2,-7.1 -30.85,-12.7 -14,-9.05 -25.65,-12.2 -35.3,-12.2 a 41.7,41.7 0 0 0 -13.6,2.35 c -11.8,4 -19.6,12.5 -24.5,17.1 -1,0.95 -2.2,1.75 -5.2,4 -3,2.15 -7.5,5.5 -14,10.4 -5.85,4.3 -7.7,10 -5.7,16.6 2,6.6 8.35,14.25 20,20.85 h 0.05 c 7.25,4.25 12.2,10 17.9,14.55 a 40.05,40.05 0 0 0 9.45,5.85 c 3.6,1.55 7.8,2.6 13,2.9 12.4,0.75 21.5,-3 29.5,-7.55 8,-4.6 14.8,-10.2 22.6,-12.75 h 0.05 c 16,-5 27.4,-15.05 31,-24.65 a 16.2,16.2 0 0 0 -0.4,-13.5 z"
           id="path3"
           style="fill:#ff9955;stroke-width:26.8548" />
        <path
           fill="#202020"
           d="m 3067.8857,2829.4359 c -12.75,6.65 -27.6,14.7 -43.45,14.7 -15.8,0 -28.3,-7.3 -37.25,-14.45 -4.5,-3.5 -8.15,-7.1 -10.9,-9.65 -4.8,-3.75 -4.2,-9.05 -2.25,-8.9 3.3,0.4 3.8,4.75 5.85,6.7 2.8,2.6 6.3,6 10.55,9.35 8.5,6.75 19.85,13.3 34,13.3 14.2,0 30.7,-8.3 40.8,-14 5.75,-3.2 13,-8.95 18.95,-13.3 4.5,-3.35 4.35,-7.35 8.1,-6.9 3.75,0.45 1,4.45 -4.25,9 -5.25,4.6 -13.5,10.7 -20.15,14.15 z"
           id="path4"
           style="stroke-width:26.8548" />
        <path
           fill="#ffffff"
           d="m 3262.8357,3101.1359 a 86.2,86.2 0 0 0 -5.2,0 h -0.5 c 4.4,-13.85 -5.3,-24 -31.05,-35.65 -26.7,-11.75 -48,-10.6 -51.6,13.25 -0.25,1.25 -0.45,2.5 -0.55,3.8 a 40.05,40.05 0 0 0 -6,2.7 c -12.6,6.85 -19.45,19.3 -23.25,34.6 -3.8,15.25 -4.9,33.7 -5.95,54.5 -0.65,10.4 -4.95,24.5 -9.3,39.5 -43.75,31.2 -104.5,44.7 -156.1,9.5 -3.5,-5.5 -7.5,-11 -11.65,-16.4 a 692.5,692.5 0 0 0 -8,-10.25 32.5,32.5 0 0 0 13.4,-2.5 17,17 0 0 0 9.3,-9.6 c 3.15,-8.5 0,-20.4 -10.1,-34 -10.05,-13.65 -27.1,-29 -52.15,-44.4 -18.4,-11.5 -28.7,-25.5 -33.5,-40.7 -4.85,-15.25 -4.2,-31.75 -0.5,-48 7.15,-31.25 25.5,-61.65 37.15,-80.7 3.15,-2.3 1.15,4.3 -11.8,28.35 -11.6,22 -33.35,72.75 -3.6,112.4 0.8,-28.2 7.5,-57 18.85,-83.85 16.45,-37.35 50.9,-102.05 53.6,-153.65 1.45,1 6.25,4.3 8.45,5.5 6.3,3.75 11.05,9.2 17.2,14.15 a 42.5,42.5 0 0 0 28.75,10 c 12,0 21.35,-3.95 29.1,-8.4 8.5,-4.8 15.2,-10.2 21.65,-12.25 13.5,-4.25 24.3,-11.75 30.4,-20.5 10.5,41.5 35,101.35 50.7,130.55 8.35,15.5 25,48.45 32.15,88.1 4.55,-0.1 9.55,0.5 14.95,1.9 18.75,-48.65 -15.95,-101.1 -31.8,-115.7 -6.4,-6.2 -6.75,-9 -3.5,-8.85 17.15,15.2 39.75,45.85 48,80.4 3.75,15.75 4.5,32.3 0.5,48.65 2,0.85 4,1.7 6,2.7 30.15,14.65 41.3,27.4 35.95,44.85 z"
           id="path5"
           style="fill:#f4eed7;stroke-width:26.8548" />
        <path
           fill="#ffffff"
           d="m 3109.8857,2758.0859 a 52.5,52.5 0 0 1 -10.75,32.8 205.95,205.95 0 0 0 -10.9,-4.5 l -6.35,-2.25 c 1.45,-1.75 4.25,-3.75 5.35,-6.35 a 33.45,33.45 0 0 0 2.5,-12.15 l 0.05,-0.5 a 33.65,33.65 0 0 0 -1.75,-11.8 21.7,21.7 0 0 0 -5.4,-9.2 11.15,11.15 0 0 0 -7.8,-3.5 h -0.35 a 11.4,11.4 0 0 0 -7.55,3 21.7,21.7 0 0 0 -6.1,8.75 33.8,33.8 0 0 0 -2.5,12.15 v 0.5 a 35.9,35.9 0 0 0 0.45,7 88.65,88.65 0 0 0 -17.7,-6 59.8,59.8 0 0 1 -0.5,-6.65 v -0.65 a 51.75,51.75 0 0 1 4.4,-22.35 39.65,39.65 0 0 1 12.5,-16.4 27.7,27.7 0 0 1 17.3,-6.15 h 0.3 c 6.25,0 11.6,1.8 17.1,5.8 a 39,39 0 0 1 12.85,16.2 c 3.15,6.9 4.7,13.65 4.85,21.65 l 0.05,0.6 z m -94.5,8.2 a 52.5,52.5 0 0 0 -13.85,6.25 31.15,31.15 0 0 0 0.1,-7.5 v -0.4 a 32.55,32.55 0 0 0 -2.4,-9.6 18.5,18.5 0 0 0 -4.8,-7.05 7.9,7.9 0 0 0 -5.95,-2.25 c -2.1,0.2 -3.85,1.2 -5.5,3.25 a 18.6,18.6 0 0 0 -3.5,7.8 31.3,31.3 0 0 0 -0.65,10.25 v 0.4 a 31.7,31.7 0 0 0 2.4,9.65 18.35,18.35 0 0 0 5.8,7.8 l -5.1,4 -3.9,2.8 a 35.3,35.3 0 0 1 -8,-12 c -2.65,-6 -4.1,-12 -4.5,-19.05 v -0.05 a 53.55,53.55 0 0 1 2.25,-19.5 33.4,33.4 0 0 1 8.35,-14.6 17.95,17.95 0 0 1 13.2,-5.9 c 4.2,0 7.9,1.4 11.75,4.5 a 34,34 0 0 1 9.95,13.55 c 2.65,6 4,12 4.45,19.1 v 0.05 c 0.15,3 0.15,5.75 -0.1,8.5 z"
           id="path7"
           style="fill:#f4eed7;stroke-width:26.8548" />
        <path
           fill="#202020"
           d="m 3036.2857,2783.1859 c 0.5,1.7 3.25,1.45 4.85,2.25 1.35,0.7 2.5,2.25 4,2.3 1.5,0.05 3.8,-0.5 4,-2 0.25,-1.9 -2.6,-3.15 -4.4,-3.85 -2.35,-0.95 -5.35,-1.4 -7.55,-0.15 -0.5,0.25 -1.05,0.9 -0.9,1.5 z m -16.1,0 c -0.5,1.7 -3.25,1.45 -4.8,2.25 -1.4,0.7 -2.5,2.25 -4.05,2.3 -1.5,0.05 -3.8,-0.5 -4,-2 -0.25,-1.9 2.6,-3.15 4.4,-3.85 2.35,-0.95 5.4,-1.4 7.6,-0.15 0.5,0.25 1,0.9 0.85,1.5 z"
           id="path8"
           style="stroke-width:26.8548" />
      </g>
      <g
         id="g29"
         transform="matrix(0.23981164,0,0,0.23981164,37.620751,75.763324)">
        <path
           style="fill:#4b2f17;fill-opacity:1;stroke:#000000;stroke-width:1.05833;stroke-linejoin:round;paint-order:markers fill stroke"
           d="m 246.96811,282.21922 h 200.34336 c 0,0 1.35454,0.21376 2.47915,-0.43553 1.12458,-0.64928 1.06164,-1.87052 1.06164,-1.87052 v -65.21548 c 0,0 0.1724,-0.0625 -0.40444,-1.06164 -0.57685,-0.99912 -1.98221,-1.14444 -1.98221,-1.14444 l -25.16563,-8.20817 -0.1011,-60.5139 c 0,0 -2.45191,-3.03328 -6.49628,-3.03328 -4.04437,0 -6.49627,3.03328 -6.49627,3.03328 l -0.25278,27.95671 -11.27368,-4.54991 v -52.32405 c 0,0 -1.30044,-4.3477 -7.83597,-4.3477 -7.0679,0 -7.83597,4.3477 -7.83597,4.3477 v 25.42898 c 0,0 -16.32912,-19.46353 -27.09726,-26.33897 -10.76815,-6.87543 -24.7066,-9.92576 -24.7066,-9.92576 0,0 -14.27713,5.97244 -24.70661,13.28199 -10.42948,7.30955 -21.92864,24.51374 -21.92864,24.51374 l -0.17828,-28.52508 c 0,0 -1.76827,-3.65477 -7.17584,-3.65477 -5.27139,0 -7.17585,3.83305 -7.17585,3.83305 l -0.17827,52.68225 -8.46839,2.8525 0.17828,-22.64177 c 0,0 -1.11427,-5.61587 -6.28442,-4.90275 -5.17017,0.71313 -6.28443,4.90275 -6.28443,4.90275 v 30.04047 l -4.27876,2.94164 0.26741,99.92689 c 0,0 -0.71313,0.89141 0.26742,1.9611 0.98057,1.06969 1.71042,0.99067 1.71042,0.99067 z"
           id="path13"
           sodipodi:nodetypes="ccsccscccsccccsccscsccsccccsccccsc" />
        <g
           id="g27"
           style="fill:#dbac68;fill-opacity:1">
          <path
             style="fill:#dbac68;fill-opacity:1;stroke:#000000;stroke-width:1.05833;stroke-linejoin:round;paint-order:markers fill stroke"
             d="m 251.21145,275.81673 0.14986,-92.60723 19.33064,-9.74024 v 102.34747 z"
             id="path14" />
          <path
             style="fill:#dbac68;fill-opacity:1;stroke:#000000;stroke-width:1.05833;stroke-linejoin:round;paint-order:markers fill stroke"
             d="m 277.4352,276.19605 -0.29972,-105.72381 60.83905,2e-5 -0.29969,105.72379 h -20.52945 v -25.2544 c 0,0 -3.07192,-10.18979 -11.76321,-9.89009 -8.6913,0.2997 -11.76321,9.89009 -11.76321,9.89009 v 25.2544 z"
             id="path15-1"
             sodipodi:nodetypes="ccccccsccc" />
          <path
             style="fill:#dbac68;fill-opacity:1;stroke:#000000;stroke-width:1.05833;stroke-linejoin:round;paint-order:markers fill stroke"
             d="m 344.26823,204.63803 0.7288,-34.16579 h 46.45345 l 0.32016,31.4685 -16.78318,1.19879 -0.74925,-16.63333 c 0,0 -0.29972,-4.1958 -6.89311,-4.4955 -6.59339,-0.2997 -7.49249,7.1928 -7.49249,7.1928 l -0.2997,15.13483 z"
             id="path20"
             sodipodi:nodetypes="ccccccsccc" />
          <path
             style="fill:#dbac68;fill-opacity:1;stroke:#000000;stroke-width:1.05833;stroke-linejoin:round;paint-order:markers fill stroke"
             d="m 343.81867,275.66688 0.74925,-64.43545 59.64026,-3.5964 0.29969,67.73215 z"
             id="path21" />
        </g>
        <path
           style="fill:#33aadd;fill-opacity:1;stroke:#000000;stroke-width:1.05833;stroke-linejoin:round;paint-order:markers fill stroke"
           d="m 283.55984,161.81078 c 0,0 4.83951,-23.18705 24.56631,-38.83368 19.00655,-15.07535 24.56631,-14.64188 24.56631,-14.64188 0,0 6.82409,-0.37512 24.56631,12.13031 21.1672,14.91949 24.56631,41.4499 24.56631,41.4499 z"
           id="path26"
           sodipodi:nodetypes="cscscc" />
        <g
           id="g26"
           style="fill:#4b2f17;fill-opacity:1">
          <path
             style="fill:#4b2f17;fill-opacity:1;stroke:#000000;stroke-width:1.05833;stroke-linejoin:round;paint-order:markers fill stroke"
             d="m 301.11147,237.00561 h 8.99099 v -15.43454 c 0,0 -2.17282,-2.997 -4.12088,-2.997 -1.94805,0 -4.12087,2.997 -4.12087,2.997 z"
             id="path16"
             sodipodi:nodetypes="cccscc" />
          <path
             style="fill:#4b2f17;fill-opacity:1;stroke:#000000;stroke-width:1.05833;stroke-linejoin:round;paint-order:markers fill stroke"
             d="m 253.37311,241.85711 7.40349,0.14985 v -15.43454 c 0,0 -1.37907,-2.997 -3.32713,-2.997 -1.94804,0 -3.32712,2.997 -3.32712,2.997 z"
             id="path16-9"
             sodipodi:nodetypes="cccscc" />
          <path
             d="m 254.78862,209.37945 7.40349,0.14985 v -16.48349 c 0,0 -2.09788,-1.94805 -4.04593,-1.94805 -1.94805,0 -2.60832,2.997 -2.60832,2.997 z"
             style="fill:#4b2f17;fill-opacity:1;stroke:#000000;stroke-width:1.05833;stroke-linejoin:round;paint-order:markers fill stroke"
             id="path1-4" />
          <path
             style="fill:#4b2f17;fill-opacity:1;stroke:#000000;stroke-width:1.05833;stroke-linejoin:round;paint-order:markers fill stroke"
             d="m 281.63099,206.58608 12.58739,-0.5994 0.14984,-21.72823 c 0,0 -2.09788,-3.2967 -6.59339,-3.2967 -4.49549,0 -5.54445,4.1958 -5.54445,4.1958 z"
             id="path17" />
          <path
             style="fill:#4b2f17;fill-opacity:1;stroke:#000000;stroke-width:1.05833;stroke-linejoin:round;paint-order:markers fill stroke"
             d="M 299.01359,206.73593 H 316.546 l 0.14984,-20.52943 c 0,0 -1.79819,-5.24475 -8.84112,-5.24475 -7.04295,0 -9.29069,6.2937 -9.29069,6.2937 z"
             id="path18" />
          <path
             style="fill:#4b2f17;fill-opacity:1;stroke:#000000;stroke-width:1.05833;stroke-linejoin:round;paint-order:markers fill stroke"
             d="m 321.49104,207.33533 11.53845,-0.44955 0.59939,-22.17778 c 0,0 -2.3976,-3.8961 -7.64233,-3.74625 -5.24476,0.14985 -4.94506,4.94505 -4.94506,4.94505 z"
             id="path19" />
          <path
             style="fill:#4b2f17;fill-opacity:1;stroke:#000000;stroke-width:1.05833;stroke-linejoin:round;paint-order:markers fill stroke"
             d="m 425.6054,240.25049 4.49271,0.50543 v -11.79333 c 0,0 -0.78624,-3.2572 -2.13403,-2.80793 -1.34781,0.44927 -1.96556,3.59416 -1.96556,3.59416 z"
             id="path23" />
          <path
             style="fill:#4b2f17;fill-opacity:1;stroke:#000000;stroke-width:1.05833;stroke-linejoin:round;paint-order:markers fill stroke"
             d="m 435.71397,244.1816 4.2119,0.89854 0.11231,-14.5451 c 0,0 -1.23547,-2.07787 -2.24634,-1.96556 -1.01086,0.11232 -2.41482,1.57245 -2.41482,1.57245 z"
             id="path24" />
        </g>
        <g
           id="g28"
           style="fill:#ba8e54;fill-opacity:1">
          <path
             style="fill:#ba8e54;fill-opacity:1;stroke:#000000;stroke-width:1.05833;stroke-linejoin:round;paint-order:markers fill stroke"
             d="m 411.25112,275.66688 -0.14983,-67.73215 34.01591,10.48949 v 57.24266 z"
             id="path22" />
          <path
             style="fill:#ba8e54;fill-opacity:1;stroke:#000000;stroke-width:1.05833;stroke-linejoin:round;paint-order:markers fill stroke"
             d="m 398.31154,201.31657 -1.38695,-27.65692 19.74332,9.21897 -0.73427,19.25379 -5.0582,-2.20276 z"
             id="path25" />
        </g>
      </g>
    </g>
  </g>
</svg>
